<svg width="95" height="90" viewBox="0 0 95 90" fill="none" xmlns="http://www.w3.org/2000/svg">
<path d="M60.3301 75.425L42.8 85.415L43.12 47.645L55.1901 40.665C55.9101 40.245 56.15 39.335 55.74 38.615C55.33 37.895 54.4101 37.655 53.6901 38.065L41.63 45.045L4.88 24.095L41.55 3.225L55.6801 11.185C56.4001 11.595 57.32 11.335 57.72 10.615C58.13 9.895 57.87 8.975 57.15 8.575L42.28 0.195C41.82 -0.065 41.26 -0.065 40.8 0.195L1.10004 22.785C1.00004 22.845 0.920027 22.915 0.840027 22.985C0.820027 22.995 0.810039 23.005 0.790039 23.025C0.700039 23.115 0.620049 23.225 0.550049 23.335C0.540049 23.355 0.53002 23.385 0.52002 23.415C0.47002 23.505 0.430024 23.595 0.400024 23.695C0.390024 23.745 0.390005 23.785 0.380005 23.835C0.370005 23.915 0.350037 23.995 0.350037 24.075L0 65.305C0 65.845 0.29001 66.355 0.76001 66.625L40.53 89.295H40.55C40.62 89.345 40.7 89.365 40.78 89.395C40.82 89.415 40.86 89.435 40.91 89.445C41.04 89.475 41.17 89.495 41.3 89.495C41.43 89.495 41.5601 89.475 41.6801 89.445C41.7301 89.435 41.7701 89.405 41.8201 89.385C41.9001 89.355 41.97 89.335 42.04 89.295L61.8301 78.015C62.5501 77.605 62.8 76.685 62.39 75.965C61.98 75.245 61.06 74.995 60.34 75.405L60.3301 75.425ZM3.32007 26.665L25.86 39.515L40.12 47.645L39.8 85.445L3 64.465L3.32007 26.665Z" fill="#6D7494"/>
<path d="M94.87 26.235C94.87 15.635 86.25 7.015 75.65 7.015C65.05 7.015 56.4301 15.635 56.4301 26.235C56.4301 35.255 62.6901 42.825 71.0801 44.885V54.035H69.3301C68.5001 54.035 67.8301 54.705 67.8301 55.535V75.015C67.8301 79.325 71.34 82.835 75.65 82.835C79.96 82.835 83.47 79.325 83.47 75.015V55.535C83.47 54.705 82.8 54.035 81.97 54.035H80.22V44.885C88.62 42.825 94.87 35.255 94.87 26.235ZM80.47 75.015C80.47 77.675 78.31 79.835 75.65 79.835C72.99 79.835 70.8301 77.675 70.8301 75.015V57.035H80.46V75.015H80.47ZM59.4301 26.235C59.4301 17.295 66.71 10.015 75.65 10.015C84.59 10.015 91.87 17.295 91.87 26.235C91.87 35.175 84.59 42.455 75.65 42.455C66.71 42.455 59.4301 35.175 59.4301 26.235ZM74.0801 45.485H77.22V53.795H74.0801V45.485Z" fill="#6D7494"/>
<path d="M35.09 27.885C35.48 27.485 35.36 26.915 34.84 26.615L24.1501 20.515C23.6901 20.255 22.9301 20.275 22.4301 20.575C21.9201 20.875 21.89 21.355 22.36 21.625L33.3801 28.055C33.9201 28.375 34.7 28.295 35.1 27.875L35.09 27.885Z" fill="#6D7494"/>
<path d="M32.1501 23.385C32.6401 23.655 33.35 23.615 33.73 23.285C34.1 22.965 34.0101 22.495 33.5301 22.235L27.0801 18.695C26.6401 18.455 25.9401 18.465 25.5101 18.725C25.0701 18.985 25.0701 19.415 25.5101 19.665L32.1401 23.375L32.1501 23.385Z" fill="#6D7494"/>
<path d="M20.7601 22.615C20.2801 22.325 19.43 22.365 18.86 22.705C18.27 23.055 18.1901 23.595 18.6901 23.895L28.3901 29.835C28.9601 30.185 29.8201 30.085 30.3101 29.615C30.7901 29.165 30.7201 28.535 30.1701 28.215L20.7601 22.605V22.615Z" fill="#6D7494"/>
<path d="M82.9 23.475C83.42 22.835 83.3301 21.885 82.6901 21.365C82.0501 20.845 81.1001 20.935 80.5801 21.575L74.52 29.005L70.8201 26.245C70.1501 25.745 69.22 25.885 68.72 26.545C68.22 27.205 68.36 28.145 69.02 28.645L73.87 32.265C74.14 32.465 74.45 32.565 74.77 32.565C75.21 32.565 75.64 32.375 75.93 32.015L82.9 23.475Z" fill="#6D7494"/>
</svg>
