<svg width="79" height="96" viewBox="0 0 79 96" fill="none" xmlns="http://www.w3.org/2000/svg">
<path d="M20.77 66.1H12.27C11.44 66.1 10.77 66.77 10.77 67.6V76.1C10.77 76.93 11.44 77.6 12.27 77.6H20.77C21.6 77.6 22.27 76.93 22.27 76.1V67.6C22.27 66.77 21.6 66.1 20.77 66.1ZM19.27 74.6H13.77V69.1H19.27V74.6Z" fill="#6D7494"/>
<path d="M22.27 49.54C22.27 48.71 21.6 48.04 20.77 48.04H12.27C11.44 48.04 10.77 48.71 10.77 49.54V58.04C10.77 58.87 11.44 59.54 12.27 59.54H20.77C21.6 59.54 22.27 58.87 22.27 58.04V49.54ZM19.27 56.54H13.77V51.04H19.27V56.54Z" fill="#6D7494"/>
<path d="M22.27 31.48C22.27 30.65 21.6 29.98 20.77 29.98H12.27C11.44 29.98 10.77 30.65 10.77 31.48V39.98C10.77 40.81 11.44 41.48 12.27 41.48H20.77C21.6 41.48 22.27 40.81 22.27 39.98V31.48ZM19.27 38.48H13.77V32.98H19.27V38.48Z" fill="#6D7494"/>
<path d="M57.48 22.38V11.14C57.48 10.31 56.81 9.64 55.98 9.64H12.27C11.44 9.64 10.77 10.31 10.77 11.14V22.38C10.77 23.21 11.44 23.88 12.27 23.88H55.98C56.81 23.88 57.48 23.21 57.48 22.38ZM54.48 20.88H13.77V12.64H54.48V20.88Z" fill="#6D7494"/>
<path d="M47.96 59.54H56.46C57.29 59.54 57.96 58.87 57.96 58.04V49.54C57.96 48.71 57.29 48.04 56.46 48.04H47.96C47.13 48.04 46.46 48.71 46.46 49.54V58.04C46.46 58.87 47.13 59.54 47.96 59.54ZM49.46 51.04H54.96V56.54H49.46V51.04Z" fill="#6D7494"/>
<path d="M57.96 31.48C57.96 30.65 57.29 29.98 56.46 29.98H47.96C47.13 29.98 46.46 30.65 46.46 31.48V39.98C46.46 40.81 47.13 41.48 47.96 41.48H56.46C57.29 41.48 57.96 40.81 57.96 39.98V31.48ZM54.96 38.48H49.46V32.98H54.96V38.48Z" fill="#6D7494"/>
<path d="M38.61 66.1H30.11C29.28 66.1 28.61 66.77 28.61 67.6V76.1C28.61 76.93 29.28 77.6 30.11 77.6H38.61C39.44 77.6 40.11 76.93 40.11 76.1V67.6C40.11 66.77 39.44 66.1 38.61 66.1ZM37.11 74.6H31.61V69.1H37.11V74.6Z" fill="#6D7494"/>
<path d="M40.11 49.54C40.11 48.71 39.44 48.04 38.61 48.04H30.11C29.28 48.04 28.61 48.71 28.61 49.54V58.04C28.61 58.87 29.28 59.54 30.11 59.54H38.61C39.44 59.54 40.11 58.87 40.11 58.04V49.54ZM37.11 56.54H31.61V51.04H37.11V56.54Z" fill="#6D7494"/>
<path d="M40.11 31.48C40.11 30.65 39.44 29.98 38.61 29.98H30.11C29.28 29.98 28.61 30.65 28.61 31.48V39.98C28.61 40.81 29.28 41.48 30.11 41.48H38.61C39.44 41.48 40.11 40.81 40.11 39.98V31.48ZM37.11 38.48H31.61V32.98H37.11V38.48Z" fill="#6D7494"/>
<path d="M39.26 84.05H3V3H65.72V56.54C65.72 57.37 66.39 58.04 67.22 58.04C68.05 58.04 68.72 57.37 68.72 56.54V1.5C68.72 0.67 68.05 0 67.22 0H1.5C0.67 0 0 0.67 0 1.5V85.54C0 86.37 0.67 87.04 1.5 87.04H39.26C40.09 87.04 40.76 86.37 40.76 85.54C40.76 84.71 40.09 84.04 39.26 84.04V84.05Z" fill="#6D7494"/>
<path d="M61.41 61.89C52.25 61.89 44.8 69.34 44.8 78.5C44.8 87.66 52.25 95.11 61.41 95.11C70.57 95.11 78.02 87.66 78.02 78.5C78.02 69.34 70.57 61.89 61.41 61.89ZM61.41 92.12C53.9 92.12 47.8 86.01 47.8 78.51C47.8 71.01 53.91 64.9 61.41 64.9C68.91 64.9 75.02 71.01 75.02 78.51C75.02 86.01 68.91 92.12 61.41 92.12Z" fill="#6D7494"/>
<path d="M63.09 77.17V74.14C63.61 74.34 64.03 74.56 64.33 74.82C64.53 74.97 64.75 75.04 65 75.04C65.37 75.04 65.69 74.9 65.95 74.63C66.22 74.36 66.35 74.03 66.35 73.67C66.35 73.21 66.13 72.79 65.7 72.45C65 71.86 64.12 71.45 63.08 71.23V70.72C63.08 70.32 62.95 69.98 62.68 69.7C62.41 69.43 62.08 69.29 61.69 69.29C61.3 69.29 60.94 69.43 60.67 69.7C60.4 69.97 60.26 70.32 60.26 70.72V71.14C59.16 71.32 58.24 71.76 57.53 72.44C56.76 73.18 56.37 74.13 56.37 75.26C56.37 77.45 57.68 78.82 60.26 79.36V82.63C59.97 82.56 59.7 82.46 59.44 82.33C59.1 82.15 58.73 81.9 58.34 81.59C57.8 81.16 57.03 81.22 56.55 81.72C56.28 81.99 56.15 82.32 56.15 82.68C56.15 83.13 56.35 83.53 56.76 83.9C57.32 84.38 57.91 84.75 58.5 84.99C59.03 85.2 59.62 85.35 60.25 85.43V86.29C60.25 86.69 60.38 87.03 60.65 87.31C60.92 87.58 61.25 87.72 61.64 87.72C62.03 87.72 62.38 87.58 62.66 87.31C62.93 87.04 63.07 86.69 63.07 86.29V85.29C64.07 85.04 64.91 84.57 65.57 83.89C66.28 83.16 66.65 82.26 66.65 81.2C66.65 80.03 66.34 79.12 65.73 78.5C65.16 77.93 64.27 77.48 63.07 77.17H63.09ZM63.84 81.33C63.84 81.56 63.75 81.78 63.56 81.98C63.43 82.12 63.27 82.25 63.08 82.36V80.13C63.29 80.25 63.46 80.39 63.58 80.55C63.75 80.77 63.84 81.03 63.84 81.33ZM60.26 73.95V76.5C59.93 76.37 59.67 76.22 59.49 76.04C59.27 75.82 59.16 75.54 59.16 75.18C59.16 74.86 59.27 74.59 59.49 74.37C59.67 74.19 59.93 74.05 60.26 73.95Z" fill="#6D7494"/>
</svg>
