<svg width="82" height="103" viewBox="0 0 82 103" fill="none" xmlns="http://www.w3.org/2000/svg">
<path d="M81.06 36.53C80.94 36.32 80.77 36.13 80.55 36L65.47 26.92C64.76 26.49 63.84 26.72 63.41 27.43C62.98 28.14 63.21 29.06 63.92 29.49L76.77 37.23L67.77 42.64C67.59 42.75 67.4399 42.89 67.3199 43.05L60.5699 38.98C60.0899 38.69 59.48 38.69 59 38.99L48.09 45.85C47.64 46.14 47.37 46.64 47.39 47.18C47.41 47.72 47.72 48.2 48.19 48.45L53.46 51.23L41.62 58.34L4.88 37.4L20.47 28.53C21.19 28.12 21.44 27.2 21.03 26.48C20.62 25.76 19.7 25.51 18.98 25.92L1.09998 36.1C1.01998 36.15 0.950005 36.21 0.880005 36.27C0.850005 36.3 0.809978 36.31 0.789978 36.34C0.699978 36.43 0.619988 36.54 0.549988 36.65C0.519988 36.69 0.50999 36.75 0.48999 36.79C0.45999 36.86 0.419963 36.93 0.399963 37C0.389963 37.05 0.390005 37.11 0.380005 37.16C0.370005 37.23 0.349976 37.31 0.349976 37.38L0 78.61C0 79.15 0.289949 79.66 0.759949 79.93L40.55 102.61C40.62 102.65 40.7 102.68 40.78 102.7C40.82 102.71 40.86 102.74 40.9 102.75C41.02 102.78 41.15 102.8 41.28 102.8C41.41 102.8 41.55 102.78 41.68 102.74C41.72 102.73 41.76 102.71 41.8 102.69C41.88 102.66 41.96 102.64 42.03 102.59C42.03 102.59 42.05 102.58 42.06 102.57C42.06 102.57 42.08 102.57 42.08 102.56L80.8 78.23C81.24 77.96 81.5 77.48 81.5 76.96V37.58C81.5 37.16 81.33 36.79 81.06 36.52V36.53ZM58.0699 52.03L65.89 47.34V60.17L57.99 65.13L58.0699 52.04V52.03ZM59.81 42.02L64.35 44.76L56.53 49.46L51.88 47.01L59.81 42.03V42.02ZM3.31995 39.96L40.12 60.94L39.8 98.74L3 77.76L3.31995 39.96ZM42.8 98.58L43.12 60.93L55.06 53.76L54.98 67.84C54.98 68.39 55.27 68.89 55.75 69.16C55.98 69.29 56.23 69.35 56.48 69.35C56.76 69.35 57.03 69.27 57.28 69.12L68.19 62.26C68.63 61.99 68.89 61.51 68.89 60.99V45.37C69.03 45.34 69.17 45.28 69.31 45.2L78.5 39.68V76.14L42.8 98.57V98.58Z" fill="#6D7494"/>
<path d="M16.3 75.4L7.70996 70.94C7.31996 70.74 6.98998 70.94 6.97998 71.39C6.96998 71.83 7.26996 72.35 7.64996 72.55L16.05 76.93C16.44 77.13 16.82 76.97 16.89 76.55C16.96 76.13 16.7 75.61 16.3 75.41V75.4Z" fill="#6D7494"/>
<path d="M7.75994 69.56L13.43 72.49C13.83 72.7 14.2099 72.5 14.2699 72.04C14.3299 71.57 14.04 71.02 13.63 70.8L7.82995 67.81C7.41995 67.6 7.07994 67.83 7.06994 68.32C7.05994 68.8 7.36995 69.35 7.76995 69.56H7.75994Z" fill="#6D7494"/>
<path d="M14.54 77.45L7.59998 73.82C7.21998 73.62 6.90997 73.8 6.89997 74.22C6.88997 74.63 7.17999 75.11 7.54999 75.31L14.34 78.87C14.71 79.07 15.07 78.92 15.12 78.53C15.18 78.14 14.92 77.65 14.53 77.45H14.54Z" fill="#6D7494"/>
<path d="M40.65 47.34C40.9 47.51 41.2599 47.61 41.5699 47.61C41.8799 47.61 42.17 47.52 42.43 47.34C43.2 46.81 61.23 34.11 61.23 19.65C61.23 8.81 52.4099 0 41.5099 0C30.6099 0 21.86 8.82 21.86 19.65C21.86 34.11 39.89 46.81 40.66 47.34H40.65ZM41.5699 2.99C50.7499 2.99 58.22 10.46 58.22 19.64C58.22 30.9 45 41.64 41.53 44.26C38.06 41.64 24.84 30.91 24.84 19.64C24.84 10.46 32.31 2.99 41.56 2.99H41.5699Z" fill="#6D7494"/>
<path d="M52.27 18.31C52.27 12.39 47.46 7.57999 41.54 7.57999C35.62 7.57999 30.81 12.39 30.81 18.31C30.81 24.23 35.62 29.04 41.54 29.04C47.46 29.04 52.27 24.23 52.27 18.31ZM33.81 18.31C33.81 14.05 37.28 10.58 41.54 10.58C45.8 10.58 49.27 14.05 49.27 18.31C49.27 22.57 45.8 26.04 41.54 26.04C37.28 26.04 33.81 22.57 33.81 18.31Z" fill="#6D7494"/>
</svg>
