<svg width="69" height="91" viewBox="0 0 69 91" fill="none" xmlns="http://www.w3.org/2000/svg">
<path d="M59.43 19.36H33.25C32.42 19.36 31.75 20.03 31.75 20.86C31.75 21.69 32.42 22.36 33.25 22.36H59.43C60.26 22.36 60.93 21.69 60.93 20.86C60.93 20.03 60.26 19.36 59.43 19.36Z" fill="#6D7494"/>
<path d="M33.12 29.37H50.82C51.65 29.37 52.32 28.7 52.32 27.87C52.32 27.04 51.65 26.37 50.82 26.37H33.12C32.29 26.37 31.62 27.04 31.62 27.87C31.62 28.7 32.29 29.37 33.12 29.37Z" fill="#6D7494"/>
<path d="M17.55 19.81C18.38 19.81 19.05 19.14 19.05 18.31C19.05 17.48 18.38 16.81 17.55 16.81H10.55C9.72002 16.81 9.05002 17.48 9.05002 18.31V31.65C9.05002 32.48 9.72002 33.15 10.55 33.15H23.74C24.57 33.15 25.24 32.48 25.24 31.65V27.41C25.24 26.58 24.57 25.91 23.74 25.91C22.91 25.91 22.24 26.58 22.24 27.41V30.15H12.05V19.81H17.55Z" fill="#6D7494"/>
<path d="M25.33 17.78C24.7 17.25 23.75 17.33 23.22 17.96L17.62 24.62L16.05 23.24C15.43 22.69 14.48 22.75 13.93 23.37C13.38 23.99 13.44 24.94 14.06 25.49L16.78 27.89C17.05 28.13 17.41 28.26 17.77 28.26C17.81 28.26 17.84 28.26 17.88 28.26C18.28 28.23 18.66 28.04 18.92 27.73L25.51 19.89C26.04 19.26 25.96 18.31 25.33 17.78Z" fill="#6D7494"/>
<path d="M59.43 43.14H33.25C32.42 43.14 31.75 43.81 31.75 44.64C31.75 45.47 32.42 46.14 33.25 46.14H59.43C60.26 46.14 60.93 45.47 60.93 44.64C60.93 43.81 60.26 43.14 59.43 43.14Z" fill="#6D7494"/>
<path d="M33.12 53.15H50.82C51.65 53.15 52.32 52.48 52.32 51.65C52.32 50.82 51.65 50.15 50.82 50.15H33.12C32.29 50.15 31.62 50.82 31.62 51.65C31.62 52.48 32.29 53.15 33.12 53.15Z" fill="#6D7494"/>
<path d="M25.24 51.19C25.24 50.36 24.57 49.69 23.74 49.69C22.91 49.69 22.24 50.36 22.24 51.19V53.93H12.05V43.6H17.55C18.38 43.6 19.05 42.93 19.05 42.1C19.05 41.27 18.38 40.6 17.55 40.6H10.55C9.72002 40.6 9.05002 41.27 9.05002 42.1V55.43C9.05002 56.26 9.72002 56.93 10.55 56.93H23.74C24.57 56.93 25.24 56.26 25.24 55.43V51.19Z" fill="#6D7494"/>
<path d="M25.33 41.56C24.7 41.03 23.75 41.11 23.22 41.74L17.62 48.4L16.05 47.02C15.43 46.47 14.48 46.53 13.93 47.15C13.38 47.77 13.44 48.72 14.06 49.27L16.78 51.67C17.05 51.91 17.41 52.04 17.77 52.04C17.81 52.04 17.84 52.04 17.88 52.04C18.28 52.01 18.66 51.82 18.92 51.51L25.51 43.67C26.04 43.04 25.96 42.09 25.33 41.56Z" fill="#6D7494"/>
<path d="M60.93 69.72C60.93 68.89 60.26 68.22 59.43 68.22H33.25C32.42 68.22 31.75 68.89 31.75 69.72C31.75 70.55 32.42 71.22 33.25 71.22H59.43C60.26 71.22 60.93 70.55 60.93 69.72Z" fill="#6D7494"/>
<path d="M33.12 75.22C32.29 75.22 31.62 75.89 31.62 76.72C31.62 77.55 32.29 78.22 33.12 78.22H50.82C51.65 78.22 52.32 77.55 52.32 76.72C52.32 75.89 51.65 75.22 50.82 75.22H33.12Z" fill="#6D7494"/>
<path d="M23.74 65.81H10.55C9.72002 65.81 9.05002 66.48 9.05002 67.31V80.5C9.05002 81.33 9.72002 82 10.55 82H23.74C24.57 82 25.24 81.33 25.24 80.5V67.31C25.24 66.48 24.57 65.81 23.74 65.81ZM22.24 79H12.05V68.81H22.24V79Z" fill="#6D7494"/>
<path d="M66.87 3.53H57.22C56.39 3.53 55.72 4.2 55.72 5.03C55.72 5.86 56.39 6.53 57.22 6.53H65.37V87.59H3V6.53H11.39C12.22 6.53 12.89 5.86 12.89 5.03C12.89 4.2 12.22 3.53 11.39 3.53H1.5C0.67 3.53 0 4.2 0 5.03V89.07C0 89.9 0.67 90.57 1.5 90.57H66.87C67.27 90.58 67.65 90.42 67.93 90.14C68.21 89.86 68.37 89.48 68.37 89.08V5.03C68.37 4.2 67.7 3.53 66.87 3.53Z" fill="#6D7494"/>
<path d="M18.89 10.18H49.83C50.66 10.18 51.33 9.51 51.33 8.68V1.5C51.33 0.67 50.66 0 49.83 0H18.89C18.06 0 17.39 0.67 17.39 1.5V8.68C17.39 9.51 18.06 10.18 18.89 10.18ZM20.39 3.01H48.33V7.19H20.39V3.01Z" fill="#6D7494"/>
</svg>
