<svg width="78" height="95" viewBox="0 0 78 95" fill="none" xmlns="http://www.w3.org/2000/svg">
<path d="M25.46 57.13C25.32 56.31 24.54 55.77 23.72 55.91C22.9 56.05 22.36 56.83 22.5 57.65C23.89 65.55 30.72 71.29 38.74 71.29C46.76 71.29 53.59 65.56 54.98 57.65C55.12 56.83 54.58 56.06 53.76 55.91C52.94 55.77 52.17 56.31 52.02 57.13C50.88 63.59 45.3 68.29 38.73 68.29C32.16 68.29 26.58 63.6 25.44 57.13H25.46Z" fill="#6D7494"/>
<path d="M75.97 55.89C75.14 55.89 74.47 56.56 74.47 57.39V58.9C74.35 58.99 74.06 59.13 73.61 59.15L66.84 59.51C66.16 59.55 65.59 60.03 65.45 60.7C64.8 63.81 63.58 66.79 61.84 69.56C61.48 70.13 61.55 70.87 62 71.37L67.31 77.18C67.6 77.5 67.71 77.8 67.73 77.95L61.9 83.78C61.75 83.76 61.45 83.65 61.13 83.36L55.38 78.1C54.88 77.64 54.1301 77.58 53.55 77.95C50.8 79.73 47.79 80.98 44.62 81.67C43.95 81.81 43.47 82.39 43.44 83.07L43.09 90.83C43.07 91.26 42.94 91.55 42.84 91.68H34.6C34.51 91.56 34.37 91.27 34.35 90.84L34 83.03C33.97 82.35 33.49 81.78 32.83 81.63C29.67 80.92 26.69 79.66 23.98 77.89C23.41 77.52 22.65 77.58 22.15 78.04L16.32 83.37C16 83.66 15.7 83.77 15.55 83.79L9.72003 77.96C9.74003 77.81 9.85001 77.51 10.14 77.19L15.57 71.25C16.02 70.75 16.09 70.02 15.74 69.45C14.03 66.71 12.85 63.77 12.21 60.72C12.07 60.05 11.5 59.57 10.82 59.53L3.84003 59.16C3.41003 59.14 3.12 59.01 3 58.91V57.4C3 56.57 2.33 55.9 1.5 55.9C0.67 55.9 0 56.57 0 57.4V59.06C0 60.73 1.60001 62.06 3.70001 62.15L9.54004 62.46C10.2 65.1 11.23 67.64 12.62 70.05L7.95001 75.16C6.52001 76.72 6.33001 78.79 7.51001 79.97L13.55 86.01C14.73 87.19 16.8 87 18.36 85.57L23.35 81.01C25.76 82.45 28.35 83.55 31.07 84.27L31.37 90.96C31.47 93.08 32.79 94.67 34.46 94.67H43C44.67 94.67 46 93.07 46.09 90.96L46.39 84.33C49.13 83.62 51.74 82.53 54.19 81.08L59.1 85.57C60.66 87 62.73 87.19 63.91 86.01L69.95 79.97C71.13 78.79 70.94 76.72 69.51 75.16L64.96 70.18C66.38 67.73 67.44 65.14 68.11 62.45L73.74 62.15C75.86 62.06 77.45 60.73 77.45 59.06V57.4C77.45 56.57 76.78 55.9 75.95 55.9L75.97 55.89Z" fill="#6D7494"/>
<path d="M50.64 9.37C50.64 9.44 50.66 9.51 50.67 9.6L50.7 9.79C50.7 9.87 50.72 9.94 50.73 10C50.73 10.07 50.75 10.14 50.76 10.23L50.82 10.64C50.82 10.72 50.84 10.79 50.85 10.85C50.85 10.93 50.87 11 50.88 11.06C50.88 11.13 50.9 11.2 50.91 11.27C50.91 11.35 50.93 11.42 50.94 11.48C50.94 11.56 50.96 11.63 50.97 11.69C50.97 11.77 50.99 11.84 51 11.9C51 11.97 51.02 12.04 51.03 12.11C51.03 12.19 51.05 12.26 51.06 12.32C51.06 12.4 51.08 12.47 51.09 12.53C51.09 12.61 51.11 12.68 51.12 12.75C51.5 16.65 54.74 19.58 58.66 19.58C62.58 19.58 65.82 16.64 66.2 12.74C66.2 12.68 66.22 12.61 66.23 12.55C66.24 12.47 66.25 12.4 66.26 12.34C66.27 12.26 66.28 12.19 66.29 12.12L66.32 11.9C66.33 11.83 66.34 11.76 66.35 11.71C66.36 11.63 66.37 11.56 66.38 11.49C66.39 11.41 66.4 11.34 66.41 11.27L66.44 11.05C66.45 10.98 66.46 10.91 66.47 10.86C66.48 10.78 66.49 10.71 66.5 10.65C66.51 10.57 66.52 10.5 66.53 10.41L66.56 10.2C66.57 10.13 66.58 10.06 66.59 10.01C66.6 9.93 66.61 9.86 66.62 9.8C66.63 9.72 66.64 9.65 66.65 9.56L66.68 9.35C66.69 9.28 66.7 9.21 66.7 9.19C66.75 8.79 66.78 8.46 66.78 8.13C66.78 3.65 63.14 0.0100002 58.66 0.0100002C54.18 0.0100002 50.54 3.65 50.54 8.13C50.54 8.46 50.56 8.79 50.61 9.14C50.61 9.22 50.63 9.29 50.64 9.35V9.37ZM53.59 8.83C53.56 8.61 53.54 8.39 53.54 8.16C53.54 5.34 55.84 3.04 58.66 3.04C61.48 3.04 63.78 5.34 63.78 8.16C63.78 8.39 63.76 8.61 63.72 8.92L63.64 9.46C63.64 9.46 63.63 9.54 63.63 9.57C63.63 9.58 63.62 9.67 63.61 9.68L65.1 9.89L63.6 9.79L63.54 10.22C63.54 10.22 63.53 10.32 63.52 10.33C63.52 10.35 63.51 10.41 63.51 10.43L63.49 10.54L64.98 10.74L63.48 10.64C63.48 10.64 63.45 10.84 63.45 10.86L63.43 10.96C63.43 10.96 63.42 11.05 63.42 11.07C63.42 11.08 63.41 11.17 63.4 11.18C63.4 11.2 63.39 11.26 63.39 11.28L63.37 11.39L64.86 11.6L63.36 11.5C63.36 11.5 63.33 11.7 63.33 11.72L63.31 11.82C63.31 11.82 63.3 11.91 63.3 11.93L63.28 12.04C63.28 12.04 63.27 12.12 63.27 12.15C63.27 12.16 63.26 12.25 63.25 12.26L64.74 12.47L63.24 12.37C63.24 12.37 63.22 12.51 63.22 12.54C62.99 14.89 61.03 16.67 58.66 16.67C56.29 16.67 54.33 14.9 54.1 12.49C54.1 12.48 54.09 12.39 54.08 12.38L52.6 12.61L54.07 12.27C54.07 12.27 54.06 12.17 54.05 12.16L52.57 12.4L54.04 12.06C54.04 12.06 54.01 11.88 54.01 11.87L53.99 11.74L52.49 11.88L53.97 11.64C53.97 11.64 53.96 11.54 53.95 11.53L52.47 11.76L53.94 11.42L53.92 11.31L52.42 11.45L53.9 11.21C53.9 11.21 53.87 11.03 53.87 11.02L53.84 10.79C53.84 10.79 53.83 10.69 53.82 10.68L52.34 10.91L53.81 10.57L53.79 10.46L52.29 10.6L53.77 10.36C53.77 10.36 53.74 10.18 53.74 10.17L53.71 9.96C53.71 9.95 53.69 9.84 53.69 9.83L52.21 10.06L53.68 9.73L53.66 9.62L52.16 9.76L53.64 9.52C53.64 9.52 53.61 9.34 53.61 9.33L53.59 9.2L52.09 9.34L53.57 9.1L52.07 9.23L53.54 8.9L53.59 8.83Z" fill="#6D7494"/>
<path d="M49.9101 27.64C52.9801 25.75 55.99 24.49 56.64 24.35H60.68C62.86 24.76 72.4201 30.01 72.4201 32.29C72.4201 32.33 72.4201 32.37 72.4201 32.41L73.9801 51.01C74.0501 51.79 74.7 52.39 75.47 52.39C75.51 52.39 75.5501 52.39 75.6001 52.39C76.4301 52.32 77.04 51.6 76.97 50.77L75.4201 32.22C75.3001 27.03 62.35 21.35 60.75 21.35H56.56C55.16 21.35 50.81 23.56 48.33 25.08C47.62 25.52 47.41 26.44 47.84 27.14C48.27 27.85 49.2 28.06 49.9 27.63L49.9101 27.64Z" fill="#6D7494"/>
<path d="M10.34 9.37C10.34 9.44 10.36 9.52 10.37 9.59C10.37 9.66 10.39 9.73 10.4 9.79C10.4 9.86 10.42 9.94 10.43 10.01C10.43 10.08 10.45 10.15 10.46 10.21C10.46 10.28 10.48 10.36 10.49 10.44C10.49 10.51 10.51 10.58 10.52 10.64C10.52 10.71 10.54 10.79 10.55 10.85C10.55 10.93 10.57 11 10.58 11.06C10.58 11.13 10.6 11.21 10.61 11.27C10.61 11.35 10.63 11.42 10.64 11.48C10.64 11.55 10.66 11.63 10.67 11.7C10.67 11.77 10.69 11.84 10.7 11.9C10.7 11.97 10.72 12.05 10.73 12.11C10.73 12.19 10.75 12.26 10.76 12.32C10.76 12.39 10.78 12.47 10.79 12.54C10.79 12.61 10.81 12.69 10.82 12.75C11.2 16.65 14.44 19.58 18.36 19.58C22.28 19.58 25.52 16.64 25.9 12.74C25.91 12.67 25.92 12.6 25.93 12.53C25.94 12.46 25.95 12.38 25.96 12.32C25.97 12.25 25.98 12.18 25.99 12.1C26 12.03 26.01 11.96 26.02 11.89C26.03 11.82 26.04 11.74 26.05 11.69C26.06 11.61 26.07 11.54 26.08 11.47C26.09 11.4 26.1 11.33 26.11 11.26C26.12 11.19 26.13 11.12 26.14 11.05C26.15 10.98 26.16 10.91 26.17 10.84C26.18 10.77 26.19 10.7 26.2 10.63C26.21 10.56 26.22 10.49 26.23 10.42C26.24 10.35 26.25 10.28 26.26 10.21C26.27 10.14 26.28 10.06 26.29 9.99C26.3 9.92 26.31 9.85 26.32 9.78C26.33 9.71 26.34 9.63 26.35 9.56C26.36 9.49 26.37 9.42 26.38 9.35C26.39 9.28 26.4 9.21 26.4 9.18C26.45 8.78 26.48 8.45 26.48 8.12C26.48 3.64 22.84 0 18.36 0C13.88 0 10.24 3.64 10.24 8.12C10.24 8.45 10.26 8.79 10.31 9.14C10.31 9.21 10.33 9.28 10.34 9.34V9.37ZM13.35 9.25L13.32 9.04L13.29 8.83C13.26 8.61 13.24 8.39 13.24 8.16C13.24 5.34 15.54 3.04 18.36 3.04C21.18 3.04 23.48 5.34 23.48 8.16C23.48 8.39 23.46 8.61 23.42 8.92L23.39 9.13L23.36 9.35L23.33 9.56L23.3 9.78L23.24 10.21L23.21 10.42L23.15 10.84L23.12 11.06L23.09 11.27C23.09 11.27 23.08 11.37 23.07 11.38L24.56 11.59L23.06 11.49L23 11.91L22.97 12.13L22.94 12.34C22.94 12.34 22.92 12.48 22.92 12.51C22.69 14.86 20.73 16.64 18.36 16.64C15.99 16.64 14.03 14.87 13.8 12.46L12.3 12.59L13.71 12.32H13.78C13.78 12.32 13.78 12.28 13.78 12.26L13.76 12.14L12.26 12.28L13.74 12.04L12.24 12.17L13.71 11.84L13.69 11.72L12.19 11.86L13.67 11.62C13.67 11.62 13.66 11.53 13.65 11.52L12.17 11.75L13.64 11.42L13.62 11.3L12.12 11.44L13.6 11.2L12.1 11.33L13.57 11L13.55 10.88L12.05 11.02L13.53 10.78L12.03 10.91L13.5 10.58L13.48 10.46L11.98 10.6L13.46 10.36L11.96 10.49L13.43 10.16L13.34 9.52L11.84 9.63L13.31 9.31L13.35 9.25Z" fill="#6D7494"/>
<path d="M1.42002 52.39C1.42002 52.39 1.50002 52.39 1.55002 52.39C2.32002 52.39 2.98001 51.8 3.04001 51.01L4.60001 32.41C4.60001 32.41 4.60001 32.33 4.60001 32.29C4.60001 30.01 14.16 24.75 16.34 24.35H20.38C21.03 24.49 24.04 25.75 27.11 27.64C27.82 28.08 28.74 27.86 29.17 27.15C29.6 26.44 29.39 25.52 28.68 25.09C26.2 23.56 21.85 21.36 20.45 21.36H16.26C14.66 21.36 1.71 27.03 1.59 32.23L0.0400148 50.78C-0.0299852 51.61 0.58001 52.33 1.41001 52.4L1.42002 52.39Z" fill="#6D7494"/>
<path d="M30.49 20.4C30.49 20.48 30.51 20.55 30.52 20.61C30.52 20.68 30.54 20.76 30.55 20.82C30.55 20.89 30.57 20.97 30.58 21.04C30.58 21.11 30.6 21.18 30.61 21.24C30.61 21.31 30.63 21.39 30.64 21.46C30.64 21.53 30.66 21.6 30.67 21.66C30.67 21.73 30.69 21.81 30.7 21.88C30.7 21.95 30.72 22.02 30.73 22.09C30.73 22.16 30.75 22.24 30.76 22.31C30.76 22.38 30.78 22.45 30.79 22.52C30.79 22.59 30.81 22.67 30.82 22.74C30.82 22.81 30.84 22.88 30.85 22.94C30.85 23.01 30.87 23.09 30.88 23.15C30.88 23.23 30.9 23.3 30.91 23.36C30.91 23.43 30.93 23.51 30.94 23.57C30.94 23.65 30.96 23.72 30.97 23.79C31.35 27.69 34.59 30.62 38.51 30.62C42.43 30.62 45.67 27.68 46.05 23.78C46.05 23.72 46.07 23.65 46.08 23.59C46.09 23.51 46.1 23.44 46.11 23.38C46.12 23.3 46.13 23.23 46.14 23.16L46.17 22.94C46.18 22.87 46.19 22.8 46.2 22.75C46.21 22.67 46.22 22.6 46.23 22.54C46.24 22.46 46.25 22.39 46.26 22.31L46.29 22.1C46.3 22.03 46.31 21.96 46.32 21.91C46.33 21.83 46.34 21.76 46.35 21.7C46.36 21.62 46.37 21.55 46.38 21.46L46.41 21.25C46.42 21.18 46.43 21.11 46.44 21.06C46.45 20.98 46.46 20.91 46.47 20.85C46.48 20.77 46.49 20.7 46.5 20.62L46.53 20.41C46.54 20.34 46.55 20.27 46.55 20.25C46.6 19.85 46.63 19.52 46.63 19.19C46.63 14.71 42.99 11.07 38.51 11.07C34.03 11.07 30.39 14.71 30.39 19.19C30.39 19.52 30.41 19.86 30.46 20.2C30.46 20.27 30.48 20.35 30.49 20.41V20.4ZM33.56 20.7L33.53 20.49L33.5 20.28L33.47 20.07L33.44 19.86C33.41 19.64 33.39 19.42 33.39 19.19C33.39 16.37 35.69 14.07 38.51 14.07C41.33 14.07 43.63 16.37 43.63 19.19C43.63 19.42 43.61 19.64 43.57 19.95L43.54 20.15C43.54 20.15 43.51 20.35 43.51 20.38L43.49 20.49L44.98 20.69L43.48 20.59C43.48 20.59 43.46 20.69 43.46 20.7L44.95 20.9L43.45 20.8L43.42 21C43.42 21 43.39 21.2 43.39 21.23L43.37 21.34C43.37 21.34 43.36 21.42 43.36 21.45L43.34 21.56L44.83 21.77L43.33 21.67L44.8 21.98L43.3 21.86L43.27 22.09C43.27 22.09 43.26 22.19 43.25 22.2C43.25 22.22 43.24 22.28 43.24 22.3L43.22 22.41L44.71 22.62L43.21 22.52C43.21 22.52 43.18 22.72 43.18 22.74C43.18 22.74 43.17 22.84 43.16 22.84L44.65 23.05L43.15 22.95C43.15 22.95 43.13 23.05 43.13 23.06L44.62 23.26L43.12 23.16C43.12 23.16 43.11 23.26 43.1 23.27L44.59 23.48L43.09 23.38C43.09 23.38 43.07 23.52 43.07 23.55C42.84 25.9 40.88 27.68 38.51 27.68C36.14 27.68 34.18 25.91 33.95 23.5L32.45 23.63L33.92 23.3L33.9 23.18L32.4 23.32L33.88 23.08L32.38 23.21L33.85 22.88L33.83 22.76L32.33 22.9L33.81 22.66L32.31 22.78L33.78 22.45L33.76 22.33L32.26 22.47L33.74 22.23C33.74 22.23 33.73 22.13 33.72 22.12L32.24 22.35L33.71 22.02L33.68 21.81L33.65 21.59L33.62 21.38L32.12 21.49L33.59 21.17L33.56 20.96L32.06 21.07L33.53 20.75L33.56 20.7Z" fill="#6D7494"/>
<path d="M55.27 43.31C55.27 38.1 42.21 32.37 40.6 32.37H36.41C34.8 32.37 21.74 38.1 21.74 43.31V50.46C21.74 51.29 22.41 51.96 23.24 51.96C24.07 51.96 24.74 51.29 24.74 50.46V43.31C24.74 41.03 34.3 35.77 36.48 35.37H40.53C42.71 35.78 52.27 41.03 52.27 43.31V50.46C52.27 51.29 52.94 51.96 53.77 51.96C54.6 51.96 55.27 51.29 55.27 50.46V43.31Z" fill="#6D7494"/>
<path d="M47.14 48.28C46.96 47.74 46.49 47.34 45.92 47.26L41.72 46.66L39.86 42.85C39.61 42.34 39.09 42.01 38.51 42.01C37.93 42.01 37.41 42.34 37.16 42.85L35.29 46.66L31.09 47.26C30.52 47.34 30.05 47.74 29.87 48.28C29.69 48.82 29.84 49.42 30.25 49.82L33.29 52.77L32.56 56.95C32.46 57.51 32.69 58.08 33.16 58.42C33.63 58.76 34.24 58.8 34.74 58.53L38.49 56.55L42.24 58.53C42.46 58.65 42.7 58.7 42.94 58.7C43.25 58.7 43.56 58.6 43.82 58.41C44.28 58.07 44.51 57.5 44.42 56.94L43.69 52.76L46.73 49.81C47.14 49.41 47.29 48.81 47.11 48.27L47.14 48.28ZM41.05 51.17C40.69 51.52 40.53 52.02 40.62 52.5L40.96 54.44L39.22 53.52C39 53.4 38.76 53.35 38.52 53.35C38.28 53.35 38.04 53.41 37.82 53.52L36.08 54.44L36.42 52.5C36.51 52.01 36.34 51.51 35.99 51.17L34.57 49.8L36.52 49.52C37.01 49.45 37.44 49.14 37.66 48.7L38.53 46.93L39.4 48.7C39.62 49.15 40.04 49.46 40.54 49.53L42.49 49.81L41.07 51.18L41.05 51.17Z" fill="#6D7494"/>
</svg>
