<svg width="77" height="87" viewBox="0 0 77 87" fill="none" xmlns="http://www.w3.org/2000/svg">
<path d="M11.76 39.24C10.93 39.24 10.26 39.91 10.26 40.74C10.26 41.57 10.93 42.24 11.76 42.24H40.71C41.54 42.24 42.21 41.57 42.21 40.74C42.21 39.91 41.54 39.24 40.71 39.24H11.76Z" fill="#6D7494"/>
<path d="M11.67 49.26H34.07C34.9 49.26 35.57 48.59 35.57 47.76C35.57 46.93 34.9 46.26 34.07 46.26H11.67C10.84 46.26 10.17 46.93 10.17 47.76C10.17 48.59 10.84 49.26 11.67 49.26Z" fill="#6D7494"/>
<path d="M46.26 33.72C46.26 32.89 45.59 32.22 44.76 32.22H11.76C10.93 32.22 10.26 32.89 10.26 33.72C10.26 34.55 10.93 35.22 11.76 35.22H44.76C45.59 35.22 46.26 34.55 46.26 33.72Z" fill="#6D7494"/>
<path d="M44.76 18.17H11.76C10.93 18.17 10.26 18.84 10.26 19.67C10.26 20.5 10.93 21.17 11.76 21.17H44.76C45.59 21.17 46.26 20.5 46.26 19.67C46.26 18.84 45.59 18.17 44.76 18.17Z" fill="#6D7494"/>
<path d="M11.67 28.2H38.12C38.95 28.2 39.62 27.53 39.62 26.7C39.62 25.87 38.95 25.2 38.12 25.2H11.67C10.84 25.2 10.17 25.87 10.17 26.7C10.17 27.53 10.84 28.2 11.67 28.2Z" fill="#6D7494"/>
<path d="M73.26 47.97H67.01C66.42 47.97 65.88 48.32 65.64 48.87L62.79 55.35H27.08C26.58 55.35 26.11 55.6 25.83 56.02C25.55 56.44 25.5 56.97 25.7 57.43L32.36 73.1C32.59 73.65 33.14 74.01 33.74 74.01H54.58L53.79 75.8C53.45 76.56 52.7 77.05 51.87 77.05H30.97C30.14 77.05 29.47 77.72 29.47 78.55C29.47 79.38 30.14 80.05 30.97 80.05H33.02C32.64 80.71 32.41 81.46 32.41 82.27C32.41 84.74 34.42 86.75 36.89 86.75C39.36 86.75 41.37 84.74 41.37 82.27C41.37 81.46 41.14 80.71 40.76 80.05H44.49C44.11 80.71 43.88 81.46 43.88 82.27C43.88 84.74 45.89 86.75 48.36 86.75C50.83 86.75 52.84 84.74 52.84 82.27C52.84 81.45 52.6 80.69 52.21 80.03C54.09 79.9 55.75 78.75 56.52 77.01L58.23 73.13C58.23 73.13 58.25 73.09 58.26 73.06L61.22 66.33C61.5 66.06 61.68 65.69 61.69 65.27L67.99 50.96H73.26C74.09 50.96 74.76 50.29 74.76 49.46C74.76 48.63 74.09 47.96 73.26 47.96V47.97ZM36.89 83.75C36.07 83.75 35.41 83.09 35.41 82.27C35.41 81.45 36.07 80.79 36.89 80.79C37.71 80.79 38.37 81.45 38.37 82.27C38.37 83.09 37.71 83.75 36.89 83.75ZM48.36 83.75C47.54 83.75 46.88 83.09 46.88 82.27C46.88 81.45 47.54 80.79 48.36 80.79C49.18 80.79 49.84 81.45 49.84 82.27C49.84 83.09 49.18 83.75 48.36 83.75ZM59.09 63.75H54.15L56.03 58.34H61.47L59.09 63.75ZM42.25 71.01L41.51 66.75H49.93L48.45 71.01H42.25ZM41 63.75L40.06 58.34H52.85L50.97 63.75H40.99H41ZM37.01 58.34L37.95 63.75H31.75C31.75 63.75 31.68 63.75 31.65 63.76L29.35 58.34H37.02H37.01ZM32.91 66.75H38.47L39.21 71.01H34.72L32.91 66.75ZM51.63 71.01L53.11 66.75H57.77L55.9 71.01H51.64H51.63Z" fill="#6D7494"/>
<path d="M64.99 0H11.76C5.27999 0 0 5.27 0 11.76C0 11.92 0.0300018 12.07 0.0800018 12.22C0.0500018 12.33 0.0399933 12.45 0.0399933 12.57V78.75C0.0399933 79.15 0.190001 79.53 0.470001 79.81C0.750001 80.09 1.13 80.25 1.53 80.25H21.93C22.76 80.25 23.43 79.58 23.43 78.75C23.43 77.92 22.76 77.25 21.93 77.25H3.03V12.57C3.03 12.41 2.99999 12.26 2.95999 12.11C2.98999 12 3 11.88 3 11.76C3 6.93 6.92999 3 11.76 3H57.17C54.76 5.15 53.23 8.28 53.23 11.76C53.23 11.85 53.24 11.95 53.26 12.04C53.2 12.21 53.16 12.38 53.16 12.57V47.62C53.16 48.45 53.83 49.12 54.66 49.12C55.49 49.12 56.16 48.45 56.16 47.62V12.57C56.16 12.48 56.15 12.38 56.13 12.29C56.19 12.12 56.23 11.95 56.23 11.76C56.23 6.93 60.16 3 64.99 3C69.82 3 73.75 6.93 73.75 11.76V15.18H63.35C62.52 15.18 61.85 15.85 61.85 16.68C61.85 17.51 62.52 18.18 63.35 18.18H75.25C76.08 18.18 76.75 17.51 76.75 16.68V11.76C76.75 5.28 71.48 0 64.99 0Z" fill="#6D7494"/>
</svg>
