<svg width="86" height="85" viewBox="0 0 86 85" fill="none" xmlns="http://www.w3.org/2000/svg">
<path d="M83.83 64.06C83 64.06 82.33 64.73 82.33 65.56V81.25H66.64C65.81 81.25 65.14 81.92 65.14 82.75C65.14 83.58 65.81 84.25 66.64 84.25H83.83C84.66 84.25 85.33 83.58 85.33 82.75V65.56C85.33 64.73 84.66 64.06 83.83 64.06Z" fill="#6D7494"/>
<path d="M18.7 81.25H3.01001V65.56C3.01001 64.73 2.34001 64.06 1.51001 64.06C0.68001 64.06 0.0100098 64.73 0.0100098 65.56V82.75C0.0100098 83.58 0.68001 84.25 1.51001 84.25H18.7C19.53 84.25 20.2 83.58 20.2 82.75C20.2 81.92 19.53 81.25 18.7 81.25Z" fill="#6D7494"/>
<path d="M1.5 20.2C2.33 20.2 3 19.53 3 18.7V3.01H18.69C19.52 3.01 20.19 2.34 20.19 1.51C20.19 0.68 19.52 0.0100002 18.69 0.0100002H1.5C0.67 0.0100002 0 0.68 0 1.51V18.7C0 19.53 0.67 20.2 1.5 20.2Z" fill="#6D7494"/>
<path d="M83.83 0H66.64C65.81 0 65.14 0.67 65.14 1.5C65.14 2.33 65.81 3 66.64 3H82.33V18.69C82.33 19.52 83 20.19 83.83 20.19C84.66 20.19 85.33 19.52 85.33 18.69V1.5C85.33 0.67 84.66 0 83.83 0Z" fill="#6D7494"/>
<path d="M32.75 29.96C32.75 30.04 32.77 30.12 32.79 30.21C32.79 30.29 32.81 30.37 32.83 30.46C32.83 30.54 32.85 30.62 32.87 30.71C32.87 30.79 32.89 30.87 32.91 30.96C32.91 31.04 32.93 31.12 32.95 31.21C32.95 31.29 32.97 31.37 32.99 31.46C32.99 31.54 33.01 31.62 33.03 31.72C33.03 31.8 33.05 31.87 33.07 31.97C33.07 32.05 33.09 32.13 33.11 32.22C33.11 32.3 33.13 32.38 33.15 32.47C33.15 32.55 33.17 32.63 33.19 32.72C33.19 32.8 33.21 32.88 33.23 32.97C33.23 33.05 33.25 33.13 33.27 33.22C33.27 33.3 33.29 33.38 33.31 33.47C33.31 33.55 33.33 33.63 33.35 33.72C33.35 33.8 33.37 33.88 33.39 33.97C33.83 38.42 37.53 41.78 42.01 41.78C46.49 41.78 50.2 38.42 50.64 33.96C50.65 33.88 50.66 33.8 50.67 33.72L49.18 33.57L50.68 33.71C50.69 33.63 50.7 33.55 50.72 33.45C50.73 33.37 50.74 33.3 50.75 33.21C50.76 33.13 50.78 33.04 50.79 32.96C50.8 32.88 50.81 32.8 50.83 32.71C50.84 32.63 50.85 32.55 50.87 32.46C50.88 32.38 50.89 32.3 50.9 32.21C50.91 32.13 50.93 32.04 50.94 31.96C50.95 31.88 50.96 31.8 50.98 31.71C50.99 31.63 51 31.55 51.02 31.45C51.03 31.37 51.04 31.3 51.05 31.2C51.06 31.12 51.07 31.04 51.08 30.95C51.09 30.87 51.1 30.79 51.12 30.69C51.13 30.61 51.14 30.53 51.15 30.45C51.16 30.37 51.17 30.29 51.19 30.19C51.2 30.11 51.21 30.04 51.22 29.95C51.23 29.87 51.24 29.79 51.25 29.75C51.31 29.29 51.34 28.91 51.34 28.54C51.34 23.41 47.17 19.23 42.03 19.23C36.89 19.23 32.72 23.4 32.72 28.54C32.72 28.92 32.75 29.3 32.8 29.71C32.8 29.79 32.82 29.86 32.84 29.96H32.75ZM35.83 30.37L35.69 29.37C35.65 29.1 35.63 28.82 35.63 28.54C35.63 25.06 38.46 22.23 41.94 22.23C45.42 22.23 48.25 25.06 48.25 28.54C48.25 28.82 48.22 29.1 48.19 29.37L47.58 33.67C47.3 36.58 44.87 38.78 41.94 38.78C39.01 38.78 36.59 36.59 36.3 33.62L36.17 32.73L34.69 32.96L36.16 32.61L36.03 31.72L34.55 31.95L36.02 31.6L35.96 31.21L34.48 31.44L35.95 31.09L35.86 30.46L34.38 30.69L35.85 30.34L35.83 30.37Z" fill="#6D7494"/>
<path d="M65.51 72.56C66.11 72.36 66.7 72.11 67.27 71.83L67.81 72.31C68.77 73.16 70.19 73.16 71.04 72.31L74.01 69.34C74.86 68.49 74.86 67.07 74.01 66.11L73.5 65.54C73.77 64.98 74.01 64.4 74.2 63.81L74.98 63.77C76.26 63.7 77.26 62.69 77.26 61.49V57.3C77.26 56.1 76.26 55.09 74.98 55.02L74.1 54.97C73.9 54.41 73.67 53.87 73.41 53.35L74.01 52.68C74.86 51.72 74.86 50.3 74.01 49.45L72.19 47.63C72.69 45.4 72.96 43.1 72.96 40.8C72.96 23.56 58.93 9.53 41.69 9.53C24.45 9.53 10.42 23.56 10.42 40.8C10.42 58.04 24.45 72.07 41.69 72.07C44.44 72.07 47.17 71.71 49.81 71C49.81 71 49.81 71 49.82 71L51.14 72.32C51.99 73.17 53.41 73.17 54.37 72.32L54.94 71.81C55.5 72.09 56.08 72.34 56.67 72.54L56.71 73.29C56.78 74.57 57.79 75.57 58.99 75.57H63.18C64.39 75.57 65.39 74.57 65.46 73.29L65.5 72.57L65.51 72.56ZM13.42 40.8C13.42 25.21 26.1 12.53 41.69 12.53C57.28 12.53 69.96 25.21 69.96 40.8C69.96 42.5 69.8 44.19 69.5 45.85C68.91 45.85 68.31 46.06 67.82 46.49L67.08 47.15C66.58 46.91 66.06 46.7 65.53 46.52L65.47 45.52C65.4 44.24 64.39 43.24 63.19 43.24H59C57.8 43.24 56.79 44.24 56.72 45.52L56.66 46.55C56.14 46.73 55.63 46.94 55.14 47.18L54.37 46.5C53.43 45.67 52.06 45.65 51.2 46.45C50.88 46.24 50.55 45.98 50.26 45.75C49.92 45.48 49.59 45.22 49.29 45.02C47.75 44 45.96 43.46 44.11 43.46H38.66C36.81 43.46 35.02 44 33.48 45.02C32.51 45.66 31.62 46.11 30.89 46.33C24.92 48.08 21.63 51.55 21.63 56.1V60.71C16.56 55.6 13.42 48.57 13.42 40.81V40.8ZM24.64 63.32V56.08C24.64 52.11 28.5 50.15 31.74 49.19C32.76 48.89 33.91 48.32 35.14 47.51C36.19 46.82 37.4 46.45 38.66 46.45H44.11C45.37 46.45 46.58 46.82 47.63 47.51C47.87 47.67 48.13 47.88 48.4 48.09C48.61 48.25 48.82 48.42 49.04 48.58L48.18 49.44C47.33 50.29 47.33 51.71 48.18 52.67L48.83 53.4C48.58 53.9 48.36 54.42 48.17 54.96L47.21 55.02C45.93 55.09 44.92 56.09 44.92 57.3V61.49C44.92 62.7 45.92 63.7 47.2 63.77L48.07 63.82C48.26 64.39 48.48 64.94 48.74 65.48L48.18 66.11C47.59 66.77 47.42 67.65 47.64 68.41C45.69 68.83 43.7 69.05 41.69 69.05C35.29 69.05 29.38 66.91 24.64 63.31V63.32ZM63.72 69.96C63.08 70.12 62.62 70.67 62.58 71.33L62.51 72.56H59.68L59.61 71.31C59.57 70.66 59.12 70.1 58.48 69.94C57.44 69.67 56.44 69.25 55.52 68.69C54.96 68.34 54.23 68.41 53.74 68.85L52.78 69.7L50.78 67.7L51.68 66.69C52.11 66.2 52.18 65.5 51.85 64.94C51.32 64.04 50.93 63.06 50.68 62.03C50.53 61.39 49.97 60.92 49.31 60.88L47.92 60.8V57.97L49.38 57.89C50.03 57.85 50.58 57.4 50.74 56.78C51 55.79 51.4 54.85 51.93 53.97C52.27 53.41 52.2 52.69 51.77 52.19L50.78 51.07L52.78 49.07L53.92 50.09C54.41 50.52 55.12 50.59 55.68 50.26C56.55 49.75 57.48 49.36 58.46 49.11C59.09 48.95 59.55 48.4 59.59 47.74L59.68 46.21H62.51L62.6 47.72C62.64 48.38 63.1 48.93 63.74 49.09C64.73 49.34 65.68 49.72 66.55 50.23C67.11 50.56 67.82 50.49 68.3 50.05L69.31 49.15C69.48 49.38 69.72 49.56 70 49.66L71.4 51.06L70.45 52.12C70.01 52.61 69.95 53.34 70.29 53.9C70.83 54.79 71.25 55.75 71.51 56.76C71.68 57.39 72.23 57.84 72.87 57.88L74.25 57.96V60.79L72.95 60.87C72.29 60.91 71.73 61.38 71.58 62.02C71.33 63.06 70.93 64.06 70.38 64.98C70.05 65.54 70.12 66.25 70.55 66.74L71.4 67.69L69.4 69.69L68.47 68.87C67.98 68.43 67.26 68.37 66.69 68.71C65.76 69.27 64.76 69.69 63.7 69.95L63.72 69.96Z" fill="#6D7494"/>
<path d="M61.1 52.17C57.11 52.17 53.87 55.42 53.87 59.4C53.87 63.38 57.12 66.63 61.1 66.63C65.08 66.63 68.33 63.38 68.33 59.4C68.33 55.42 65.08 52.17 61.1 52.17ZM61.1 63.63C58.77 63.63 56.87 61.73 56.87 59.4C56.87 57.07 58.77 55.17 61.1 55.17C63.43 55.17 65.33 57.07 65.33 59.4C65.33 61.73 63.43 63.63 61.1 63.63Z" fill="#6D7494"/>
</svg>
