<svg width="81" height="88" viewBox="0 0 81 88" fill="none" xmlns="http://www.w3.org/2000/svg">
<path d="M80.12 30.18C80.1 30.06 80.06 29.95 80.01 29.85V29.83L66.7 1.86C66.16 0.73 65.01 0 63.76 0H15.71C14.43 0 13.27 0.75 12.74 1.92L0.120026 29.86C0.120026 29.86 0.120026 29.86 0.120026 29.87C0.0700256 29.97 0.0400195 30.08 0.0200195 30.2C0.0200195 30.23 0.0200195 30.26 0.0200195 30.29C0.0200195 30.35 0 30.41 0 30.48V84.22C0 86.02 1.46001 87.48 3.26001 87.48H76.91C78.71 87.48 80.17 86.02 80.17 84.22V30.48C80.17 30.4 80.16 30.32 80.15 30.24C80.15 30.22 80.15 30.21 80.15 30.19L80.12 30.18ZM15.48 3.14C15.52 3.05 15.61 2.99 15.71 2.99H63.76C63.86 2.99 63.95 3.05 63.99 3.14L76.28 28.97H70.32V22.5C70.32 21.67 69.65 21 68.82 21H64.53V15.01C64.53 14.18 63.86 13.51 63.03 13.51H60.36V7.97C60.36 7.14 59.69 6.47 58.86 6.47H21.27C20.44 6.47 19.77 7.14 19.77 7.97V13.51H17.1C16.27 13.51 15.6 14.18 15.6 15.01V21H11.31C10.48 21 9.81 21.67 9.81 22.5V28.97H3.80002L15.47 3.14H15.48ZM57.37 13.51H22.78V9.47H57.37V13.51ZM61.53 16.51V21H18.61V16.51H61.53ZM67.32 24V28.97H12.83V24H67.32ZM77.15 84.21C77.15 84.35 77.04 84.47 76.89 84.47H3.24002C3.10002 84.47 2.98001 84.36 2.98001 84.21V31.97H77.15V84.21Z" fill="#6D7494"/>
<path d="M51.37 57.12H51.36L46.69 57.16V46.59C46.69 45.76 46.02 45.09 45.19 45.09H34.97C34.14 45.09 33.47 45.76 33.47 46.59V57.16L28.8 57.12H28.79C28.19 57.12 27.65 57.47 27.41 58.02C27.17 58.57 27.28 59.21 27.7 59.65L39 71.57C39.28 71.87 39.68 72.04 40.09 72.04C40.5 72.04 40.9 71.87 41.18 71.57L52.48 59.65C52.89 59.21 53.01 58.57 52.77 58.02C52.53 57.47 51.99 57.12 51.39 57.12H51.37ZM40.07 68.36L32.29 60.16L34.94 60.18C35.33 60.16 35.73 60.03 36.01 59.75C36.29 59.47 36.45 59.08 36.45 58.68V48.09H43.67V58.68C43.67 59.08 43.83 59.46 44.11 59.75C44.39 60.03 44.76 60.17 45.18 60.18L47.83 60.16L40.05 68.36H40.07Z" fill="#6D7494"/>
</svg>
