<svg width="79" height="99" viewBox="0 0 79 99" fill="none" xmlns="http://www.w3.org/2000/svg">
  <path d="M29.6299 61.8599H50.7099C51.5399 61.8599 52.2099 61.1899 52.2099 60.3599C52.2099 59.5299 51.5399 58.8599 50.7099 58.8599H29.6299C28.7999 58.8599 28.1299 59.5299 28.1299 60.3599C28.1299 61.1899 28.7999 61.8599 29.6299 61.8599Z" fill="#6D7494"/>
  <path d="M42.04 65.9199H29.5C28.67 65.9199 28 66.5899 28 67.4199C28 68.2499 28.67 68.9199 29.5 68.9199H42.04C42.87 68.9199 43.54 68.2499 43.54 67.4199C43.54 66.5899 42.87 65.9199 42.04 65.9199Z" fill="#6D7494"/>
  <path d="M21.25 58.1401H12.75C11.92 58.1401 11.25 58.8101 11.25 59.6401V68.1401C11.25 68.9701 11.92 69.6401 12.75 69.6401H21.25C22.08 69.6401 22.75 68.9701 22.75 68.1401V59.6401C22.75 58.8101 22.08 58.1401 21.25 58.1401ZM19.75 66.6401H14.25V61.1401H19.75V66.6401Z" fill="#6D7494"/>
  <path d="M57.4899 41.05C57.4899 40.22 56.8199 39.55 55.9899 39.55H29.6299C28.7999 39.55 28.1299 40.22 28.1299 41.05C28.1299 41.88 28.7999 42.55 29.6299 42.55H55.9899C56.8199 42.55 57.4899 41.88 57.4899 41.05Z" fill="#6D7494"/>
  <path d="M47.3298 49.6101C48.1598 49.6101 48.8298 48.9401 48.8298 48.1101C48.8298 47.2801 48.1598 46.6101 47.3298 46.6101H29.5098C28.6798 46.6101 28.0098 47.2801 28.0098 48.1101C28.0098 48.9401 28.6798 49.6101 29.5098 49.6101H47.3298Z" fill="#6D7494"/>
  <path d="M22.75 40.3301C22.75 39.5001 22.08 38.8301 21.25 38.8301H12.75C11.92 38.8301 11.25 39.5001 11.25 40.3301V48.8301C11.25 49.6601 11.92 50.3301 12.75 50.3301H21.25C22.08 50.3301 22.75 49.6601 22.75 48.8301V40.3301ZM19.75 47.3301H14.25V41.8301H19.75V47.3301Z" fill="#6D7494"/>
  <path d="M55.9899 20.25H29.6299C28.7999 20.25 28.1299 20.92 28.1299 21.75C28.1299 22.58 28.7999 23.25 29.6299 23.25H55.9899C56.8199 23.25 57.4899 22.58 57.4899 21.75C57.4899 20.92 56.8199 20.25 55.9899 20.25Z" fill="#6D7494"/>
  <path d="M29.5 30.3H47.32C48.15 30.3 48.82 29.63 48.82 28.8C48.82 27.97 48.15 27.3 47.32 27.3H29.5C28.67 27.3 28 27.97 28 28.8C28 29.63 28.67 30.3 29.5 30.3Z" fill="#6D7494"/>
  <path d="M22.75 21.02C22.75 20.19 22.08 19.52 21.25 19.52H12.75C11.92 19.52 11.25 20.19 11.25 21.02V29.52C11.25 30.35 11.92 31.02 12.75 31.02H21.25C22.08 31.02 22.75 30.35 22.75 29.52V21.02ZM19.75 28.02H14.25V22.52H19.75V28.02Z" fill="#6D7494"/>
  <path d="M57.2305 6.53003H65.7405V60.07C65.7405 60.9 66.4105 61.57 67.2405 61.57C68.0705 61.57 68.7405 60.9 68.7405 60.07V5.03003C68.7405 4.20003 68.0705 3.53003 67.2405 3.53003H57.2305C56.4005 3.53003 55.7305 4.20003 55.7305 5.03003C55.7305 5.86003 56.4005 6.53003 57.2305 6.53003Z" fill="#6D7494"/>
  <path d="M39.26 87.58H3V6.53003H11.39C12.22 6.53003 12.89 5.86003 12.89 5.03003C12.89 4.20003 12.22 3.53003 11.39 3.53003H1.5C0.67 3.53003 0 4.20003 0 5.03003V89.07C0 89.9 0.67 90.57 1.5 90.57H39.26C40.09 90.57 40.76 89.9 40.76 89.07C40.76 88.24 40.09 87.57 39.26 87.57V87.58Z" fill="#6D7494"/>
  <path d="M18.9004 10.18H49.8404C50.6704 10.18 51.3404 9.51 51.3404 8.68V1.5C51.3404 0.67 50.6704 0 49.8404 0H18.9004C18.0704 0 17.4004 0.67 17.4004 1.5V8.68C17.4004 9.51 18.0704 10.18 18.9004 10.18ZM20.4004 3.01H48.3404V7.19H20.4004V3.01Z" fill="#6D7494"/>
  <path d="M61.4205 65.4199C52.2605 65.4199 44.8105 72.8699 44.8105 82.0299C44.8105 91.1899 52.2605 98.6399 61.4205 98.6399C70.5805 98.6399 78.0305 91.1899 78.0305 82.0299C78.0305 72.8699 70.5805 65.4199 61.4205 65.4199ZM61.4205 95.6499C53.9105 95.6499 47.8105 89.5399 47.8105 82.0399C47.8105 74.5399 53.9205 68.4299 61.4205 68.4299C68.9205 68.4299 75.0305 74.5399 75.0305 82.0399C75.0305 89.5399 68.9205 95.6499 61.4205 95.6499Z" fill="#6D7494"/>
  <path d="M68.2403 76.9901C67.6003 76.4701 66.6503 76.5601 66.1303 77.2001L60.0703 84.6301L56.3703 81.8701C55.7103 81.3701 54.7703 81.5101 54.2703 82.1701C53.7703 82.8301 53.9103 83.7701 54.5703 84.2701L59.4203 87.8901C59.6903 88.0901 60.0003 88.1901 60.3203 88.1901C60.7603 88.1901 61.1903 88.0001 61.4803 87.6401L68.4503 79.1001C68.9703 78.4601 68.8803 77.5101 68.2403 76.9901Z" fill="#6D7494"/>
</svg>
