<svg width="90" height="95" viewBox="0 0 90 95" fill="none" xmlns="http://www.w3.org/2000/svg">
<path d="M87.6032 6.75805L60.7132 5.67805L60.1732 1.31805C60.1232 0.918048 59.9232 0.568048 59.6032 0.318048C59.2932 0.078048 58.8932 -0.0319519 58.4932 0.00804805L1.31319 7.12805C0.49319 7.22805 -0.096798 7.97805 0.013202 8.79805L9.62319 85.9981C9.67319 86.4181 9.90319 86.798 10.2532 87.038C10.5032 87.218 10.8132 87.3081 11.1132 87.3081C11.2232 87.3081 11.3332 87.298 11.4432 87.2681L15.0332 86.4481V92.6381C15.0332 93.4681 15.7032 94.1381 16.5332 94.1381H74.1532C74.9832 94.1381 75.6532 93.4681 75.6532 92.6381V87.048L83.2632 87.4081C83.2632 87.4081 83.3132 87.4081 83.3332 87.4081C84.1232 87.4081 84.7832 86.7881 84.8332 85.9881L89.0232 8.30805C89.0432 7.90805 88.9032 7.51805 88.6332 7.21805C88.3632 6.91805 87.9832 6.74805 87.5832 6.72805L87.6032 6.75805ZM12.4132 83.9981L3.19319 9.92805L57.3932 3.17805L58.6532 13.368H16.5532C15.7232 13.368 15.0532 14.038 15.0532 14.868V83.398L12.4132 83.9981ZM72.6732 91.1581H18.0532V16.368H72.6732V91.1681V91.1581ZM81.9332 84.368L75.6632 84.0681V14.868C75.6632 14.038 74.9932 13.368 74.1632 13.368H61.6632L61.0832 8.69805L85.9532 9.69805L81.9232 84.3781L81.9332 84.368Z" fill="#6D7494"/>
<path d="M24.1632 30.568H31.6432C32.4732 30.568 33.1432 29.898 33.1432 29.068C33.1432 28.238 32.4732 27.568 31.6432 27.568H24.1632C23.3332 27.568 22.6632 28.238 22.6632 29.068C22.6632 29.898 23.3332 30.568 24.1632 30.568Z" fill="#6D7494"/>
<path d="M24.0632 23.538H36.4332C37.2632 23.538 37.9332 22.868 37.9332 22.038C37.9332 21.208 37.2632 20.538 36.4332 20.538H24.0632C23.2332 20.538 22.5632 21.208 22.5632 22.038C22.5632 22.868 23.2332 23.538 24.0632 23.538Z" fill="#6D7494"/>
<path d="M57.1532 66.2281H24.1532C23.3232 66.2281 22.6532 66.8981 22.6532 67.7281C22.6532 68.5581 23.3232 69.2281 24.1532 69.2281H57.1532C57.9832 69.2281 58.6532 68.5581 58.6532 67.7281C58.6532 66.8981 57.9832 66.2281 57.1532 66.2281Z" fill="#6D7494"/>
<path d="M57.1532 80.2781H24.1532C23.3232 80.2781 22.6532 80.9481 22.6532 81.7781C22.6532 82.6081 23.3232 83.2781 24.1532 83.2781H57.1532C57.9832 83.2781 58.6532 82.6081 58.6532 81.7781C58.6532 80.9481 57.9832 80.2781 57.1532 80.2781Z" fill="#6D7494"/>
<path d="M24.0632 76.2481H50.5132C51.3432 76.2481 52.0132 75.5781 52.0132 74.7481C52.0132 73.9181 51.3432 73.2481 50.5132 73.2481H24.0632C23.2332 73.2481 22.5632 73.9181 22.5632 74.7481C22.5632 75.5781 23.2332 76.2481 24.0632 76.2481Z" fill="#6D7494"/>
<path d="M31.8832 42.588C31.8832 50.858 38.6132 57.588 46.8832 57.588C55.1532 57.588 61.8832 50.858 61.8832 42.588C61.8832 41.758 61.2132 41.088 60.3832 41.088H48.3832V29.088C48.3832 28.258 47.7132 27.588 46.8832 27.588C38.6132 27.588 31.8832 34.318 31.8832 42.588ZM45.3832 30.678V42.588C45.3832 43.418 46.0532 44.088 46.8832 44.088H58.7932C58.0532 49.998 52.9932 54.588 46.8832 54.588C40.2632 54.588 34.8832 49.208 34.8832 42.588C34.8832 36.478 39.4732 31.428 45.3832 30.678Z" fill="#6D7494"/>
<path d="M52.3932 38.568H65.8932C66.7232 38.568 67.3932 37.898 67.3932 37.068C67.3932 33.118 65.7932 29.258 63.0032 26.468C60.2132 23.678 56.3432 22.078 52.4032 22.078C51.5732 22.078 50.9032 22.748 50.9032 23.578V37.0781C50.9032 37.9081 51.5732 38.5781 52.4032 38.5781L52.3932 38.568ZM53.8932 25.168C56.5132 25.508 59.0032 26.708 60.8732 28.588C62.7532 30.468 63.9532 32.948 64.2932 35.568H53.8932V25.168Z" fill="#6D7494"/>
</svg>
