<svg width="101" height="88" viewBox="0 0 101 88" fill="none" xmlns="http://www.w3.org/2000/svg">
<path d="M97.79 53.5024L95.73 53.3824C95.32 52.1124 94.8 50.8824 94.17 49.7224L95.57 48.1524C96.63 46.9624 96.65 45.2324 95.61 44.1924L90.8 39.3824C89.76 38.3524 88.03 38.3724 86.84 39.4224L85.17 40.9024C84.03 40.3124 82.84 39.8324 81.61 39.4624L81.48 37.2024C81.39 35.6224 80.17 34.3724 78.71 34.3724H71.91C70.45 34.3724 69.23 35.6124 69.14 37.2024L69.01 39.5024C67.8 39.8824 66.63 40.3624 65.5 40.9524L63.78 39.4224C62.59 38.3724 60.86 38.3524 59.83 39.3824L55.02 44.1924C53.99 45.2224 54 46.9624 55.06 48.1524L56.54 49.8224C55.93 50.9624 55.42 52.1524 55.03 53.3824L52.84 53.5124C51.26 53.6024 50.01 54.8224 50.01 56.2824V63.0824C50.01 64.5424 51.25 65.7624 52.84 65.8524L54.89 65.9724C55.27 67.2624 55.77 68.5124 56.39 69.7124L55.05 71.2124C53.99 72.4024 53.98 74.1324 55.01 75.1624L59.82 79.9724C60.85 81.0024 62.59 80.9924 63.78 79.9324L65.19 78.6824C66.41 79.3524 67.7 79.8924 69.03 80.3024L69.14 82.1524C69.23 83.7324 70.45 84.9824 71.91 84.9824H78.71C80.17 84.9824 81.39 83.7424 81.48 82.1524L81.58 80.3424C82.93 79.9324 84.23 79.3924 85.48 78.7224L86.84 79.9324C88.03 80.9924 89.76 81.0024 90.8 79.9724L95.61 75.1624C96.64 74.1324 96.62 72.3924 95.57 71.2124L94.32 69.8124C94.96 68.5824 95.48 67.3024 95.88 65.9724L97.8 65.8624C99.3801 65.7724 100.63 64.5524 100.63 63.0924V56.2924C100.63 54.8324 99.39 53.6124 97.8 53.5224L97.79 53.5024ZM97.61 62.8424L94.61 63.0124C93.95 63.0524 93.3901 63.5224 93.2401 64.1624C92.8101 65.9424 92.13 67.6424 91.19 69.2224C90.86 69.7824 90.93 70.4924 91.36 70.9824L93.31 73.1924L88.83 77.6724L86.67 75.7524C86.18 75.3124 85.46 75.2524 84.89 75.5924C83.3 76.5524 81.59 77.2724 79.79 77.7124C79.15 77.8724 78.69 78.4224 78.65 79.0824L78.47 81.9624H72.14L71.97 79.0524C71.93 78.4024 71.48 77.8424 70.84 77.6824C69.05 77.2324 67.35 76.5124 65.79 75.5524C65.23 75.2024 64.5 75.2724 64.01 75.7124L61.78 77.6724L57.3 73.1924L59.34 70.9024C59.77 70.4124 59.84 69.7124 59.51 69.1424C58.6 67.5924 57.93 65.9224 57.51 64.1724C57.36 63.5324 56.8 63.0624 56.14 63.0224L53.01 62.8224V56.4924L56.26 56.3024C56.91 56.2624 57.46 55.8124 57.62 55.1924C58.07 53.5024 58.75 51.8824 59.66 50.3924C60 49.8324 59.94 49.1124 59.5 48.6124L57.31 46.1324L61.79 41.6524L64.3 43.8924C64.79 44.3224 65.5 44.3924 66.06 44.0624C67.54 43.1924 69.14 42.5324 70.81 42.1024C71.44 41.9424 71.9001 41.3924 71.9301 40.7324L72.14 37.3724H78.47L78.66 40.7024C78.7 41.3624 79.16 41.9124 79.8 42.0724C81.5 42.4924 83.11 43.1524 84.61 44.0224C85.17 44.3524 85.88 44.2824 86.36 43.8424L88.83 41.6624L93.31 46.1424L91.19 48.5224C90.75 49.0124 90.69 49.7424 91.03 50.3024C91.96 51.8224 92.66 53.4624 93.12 55.1924C93.29 55.8224 93.84 56.2724 94.48 56.3124L97.59 56.4924V62.8424H97.61ZM97.62 56.3624L97.7 55.0024V56.5224C97.7 56.5224 97.64 56.4524 97.62 56.3624Z" fill="#6D7494"/>
<path d="M75.32 48.8624C69.36 48.8624 64.52 53.7124 64.52 59.6624C64.52 65.6124 69.37 70.4624 75.32 70.4624C81.27 70.4624 86.12 65.6124 86.12 59.6624C86.12 53.7124 81.27 48.8624 75.32 48.8624ZM75.32 67.4724C71.02 67.4724 67.52 63.9724 67.52 59.6724C67.52 55.3724 71.02 51.8724 75.32 51.8724C79.62 51.8724 83.12 55.3724 83.12 59.6724C83.12 63.9724 79.62 67.4724 75.32 67.4724Z" fill="#6D7494"/>
<path d="M52.97 77.5424L42.82 83.3024L43.14 45.5124L56.94 37.2224C56.94 37.2224 56.94 37.2224 56.95 37.2224C57.09 37.1824 57.23 37.1324 57.36 37.0524L67.97 30.6824L69.32 29.7924L78.51 24.2724V30.9924C78.51 31.8224 79.18 32.4924 80.01 32.4924C80.84 32.4924 81.51 31.8224 81.51 30.9924V22.1724C81.51 21.7624 81.34 21.3924 81.08 21.1124C80.94 20.8724 80.74 20.6724 80.48 20.5324L42.86 0.792427C42.86 0.792427 42.79 0.752427 42.75 0.742427L41.31 0.122427C40.9 -0.0575731 40.42 -0.0375729 40.02 0.172427L1.15002 20.6424C1.15002 20.6424 1.14 20.6524 1.13 20.6624C1.13 20.6624 1.11004 20.6624 1.10004 20.6724C1.04004 20.7024 1.00001 20.7524 0.950012 20.7924C0.900012 20.8324 0.849998 20.8624 0.809998 20.9024C0.759998 20.9524 0.720044 21.0124 0.670044 21.0724C0.630044 21.1224 0.589998 21.1624 0.559998 21.2124C0.519998 21.2724 0.500032 21.3524 0.470032 21.4224C0.450032 21.4724 0.420034 21.5224 0.410034 21.5724C0.390034 21.6524 0.379995 21.7324 0.369995 21.8224C0.369995 21.8724 0.350037 21.9124 0.350037 21.9624L0 63.1924C0 63.7324 0.29001 64.2424 0.76001 64.5124L40.55 87.1924C40.6301 87.2424 40.72 87.2624 40.8 87.2924C40.84 87.3024 40.87 87.3224 40.9 87.3324C41.03 87.3624 41.16 87.3824 41.29 87.3824C41.42 87.3824 41.55 87.3624 41.67 87.3324C41.71 87.3224 41.75 87.3024 41.78 87.2824C41.86 87.2524 41.95 87.2224 42.02 87.1824L54.4301 80.1324C55.1501 79.7224 55.4001 78.8124 54.9901 78.0924C54.5801 77.3724 53.67 77.1224 52.94 77.5324L52.97 77.5424ZM23.07 12.5124L59.57 32.2324L55.83 34.4824C55.83 34.4824 55.82 34.4824 55.81 34.4924C55.67 34.5324 55.54 34.5724 55.41 34.6524L41.64 42.9224L4.99005 22.0324L23.07 12.5124ZM40.81 3.17243L41.53 3.48243L76.64 21.9124L67.7401 27.2524L66.39 28.1424L62.57 30.4424L26.28 10.8324L40.82 3.17243H40.81ZM3.35004 24.5524L40.15 45.5324L39.83 83.3324L3.03003 62.3524L3.35004 24.5524Z" fill="#6D7494"/>
<path d="M16.32 59.9924L7.73004 55.5324C7.34004 55.3324 7.01 55.5324 7 55.9824C6.99 56.4224 7.29004 56.9424 7.67004 57.1424L16.07 61.5224C16.46 61.7224 16.84 61.5624 16.91 61.1424C16.98 60.7224 16.72 60.2024 16.32 60.0024V59.9924Z" fill="#6D7494"/>
<path d="M7.78002 54.1524L13.45 57.0824C13.85 57.2924 14.23 57.0924 14.29 56.6324C14.35 56.1624 14.06 55.6124 13.65 55.3924L7.85003 52.4024C7.44003 52.1924 7.10002 52.4224 7.09002 52.9124C7.08002 53.3924 7.39003 53.9424 7.79003 54.1524H7.78002Z" fill="#6D7494"/>
<path d="M14.57 62.0424L7.63001 58.4124C7.25001 58.2124 6.94006 58.3924 6.93006 58.8124C6.92006 59.2224 7.21002 59.7024 7.58002 59.9024L14.37 63.4624C14.74 63.6624 15.1 63.5124 15.15 63.1224C15.21 62.7324 14.95 62.2424 14.56 62.0424H14.57Z" fill="#6D7494"/>
</svg>
