<svg width="95" height="36" viewBox="0 0 95 36" fill="none" xmlns="http://www.w3.org/2000/svg">
<path d="M7.66603 35.2631V22.3724H20.6009V15.7435H7.66603V8.74561H23.4758V2.11838H0V35.2648H7.66603V35.2631Z" fill="#117A8F"/>
<path d="M24.3565 22.8332V35.2631H31.5431V22.8332C31.5431 19.0129 34.753 15.9271 38.7297 15.9271V9.66541H37.7708C29.8174 9.66541 24.3565 15.5582 24.3565 22.8315V22.8332Z" fill="#117A8F"/>
<path d="M46.5879 0C44.2876 0 42.4684 1.79537 42.4684 3.95968C42.4684 6.12399 44.2893 7.91936 46.5879 7.91936C48.8866 7.91936 50.7074 6.16989 50.7074 3.95968C50.7074 1.74947 48.8407 0 46.5879 0ZM42.9955 35.2631H50.1821V10.4033H42.9955V35.2631Z" fill="#117A8F"/>
<path d="M55.767 2.11838V22.8349C55.767 30.1082 61.228 36.0009 69.1813 36.0009H70.1402V29.7392C66.1635 29.7392 62.9536 26.6551 62.9536 22.8332V16.9727H70.1402V11.0799H62.9536V2.11838H55.767Z" fill="#117A8F"/>
<path d="M73.8245 35.9397H95V30.047H82.8795L95 16.0529V11.0817H74.1594V16.9744H85.9449L73.8245 30.9685V35.9397Z" fill="#117A8F"/>
</svg>
