<svg width="22" height="21" viewBox="0 0 22 21" fill="none" xmlns="http://www.w3.org/2000/svg">
<path fill-rule="evenodd" clip-rule="evenodd" d="M7.10682 12.521L9.75851 7.36818C9.98424 7.41052 10.21 7.42933 10.4357 7.42933C11.8019 7.42933 13.1206 6.68851 13.7836 5.39973C14.7245 3.57238 13.9903 1.33582 12.1441 0.404509C11.5976 0.129349 11.0155 0 10.4428 0C9.07658 0 7.75786 0.740816 7.09494 2.0296C6.32272 3.53005 6.6815 5.3033 7.85291 6.4063L5.22498 11.5097C5.92354 11.7167 6.5627 12.0647 7.10444 12.521H7.10682ZM21.5272 14.6517C20.8429 13.4288 19.5622 12.7374 18.2411 12.7374C17.9726 12.7374 17.7041 12.7679 17.4356 12.8267L14.2683 7.17065C13.7788 7.70451 13.1824 8.12784 12.5195 8.41475L15.5656 13.8521C14.4322 14.9951 14.1376 16.7801 14.9621 18.2523C15.6464 19.4753 16.9271 20.1667 18.2482 20.1667C18.8636 20.1667 19.4885 20.0162 20.0635 19.701C21.8765 18.7062 22.5322 16.4461 21.5272 14.6517ZM3.75181 12.7068C5.45307 12.7068 6.88822 13.8286 7.34917 15.3643L7.35155 15.362H13.1919C13.0351 16.0675 13.028 16.7848 13.1729 17.4786H7.34917C6.88822 19.012 5.45307 20.1338 3.75181 20.1338C1.67988 20.1338 0 18.471 0 16.4203C0 14.3695 1.67988 12.7068 3.75181 12.7068Z" fill="#6D7494"/>
</svg>
